<svg xmlns="http://www.w3.org/2000/svg" viewBox="0 0 1596 512">
  <defs>
    <style>
      #text{fill:#000}@media (prefers-color-scheme:dark){#text{fill:#fff}}
    </style>
  </defs>
  <path d="M214.32 257.29a8.58 8.58 0 0 0-2.49-5.78l-94.52-94.76a8.552 8.552 0 0 0-12.11 0l-94.52 94.77a8.535 8.535 0 0 0-2.49 5.78h206.14Z" style="fill:#ffba17;stroke-width:0"/>
  <path d="M8.19 257.29c.07 2.1.9 4.18 2.49 5.78l94.52 94.76a8.552 8.552 0 0 0 12.11 0l94.52-94.76c1.6-1.6 2.42-3.68 2.49-5.78H8.19Z" data-name="Yellow" style="fill:#ff866f;stroke-width:0"/>
  <path d="M305.09 251.61c1.47 1.7 1.99 3.75 1.99 5.4l195.79.29c.35-4.35-5.11-8.66-8.18-11.7L265.39 16.17c-7.49-7.96-11.84-8.04-19.32-.06l-78.66 78.38c-5.94 6.31-7.33 12.84-.14 19.4L305.09 251.6Z" style="stroke-width:0;fill-rule:evenodd;fill:#30a5ff"/>
  <path d="M305.09 262.37c1.47-1.7 1.99-3.75 1.99-5.4l195.79-.29c.35 4.35-5.11 8.66-8.18 11.7L265.38 497.8c-7.49 7.96-11.84 8.04-19.32.06l-78.66-78.38c-5.94-6.31-7.33-12.84-.14-19.4l137.82-137.71Z" data-name="Blue" style="fill:#9700f4;stroke-width:0;fill-rule:evenodd"/>
  <path id="text" d="M738.49 426.31h32.21v20.74H647.88v-20.74h31.66V136.46c0-19.11-6.01-28.93-32.21-34.39V89.52l87.88-30.02h3.28v257.1c32.75-58.41 87.88-128.28 138.1-128.28 23.47 0 39.3 12.55 39.3 31.11 0 16.38-15.83 29.48-36.03 29.48-17.47 0-34.39-12.01-42.03-27.29-13.65 9.83-26.75 22.93-39.3 37.66l98.8 167.03h30.02v20.74H803.44v-20.74h28.38L761.4 308.4c-8.19 12.01-15.83 25.11-22.93 38.76v79.15ZM1042.25 206.87c-37.66 0-60.59 48.58-60.59 92.8l75.33-12.55c19.1-3.28 27.83-8.73 27.83-25.65 0-25.66-12.55-54.59-42.57-54.59Zm103.71 176.86c-18.02 40.39-55.68 68.78-104.26 68.78-66.6 0-112.45-54.59-112.45-125.55 0-81.33 55.68-138.65 115.18-138.65 62.77 0 98.25 44.21 98.25 105.35l-159.93 25.66c6 59.5 41.48 93.89 85.15 93.89 26.2 0 48.59-10.92 67.69-37.12l10.37 7.64ZM1279.75 206.87c-37.67 0-60.6 48.58-60.6 92.8l75.33-12.55c19.1-3.28 27.83-8.73 27.83-25.65 0-25.66-12.55-54.59-42.57-54.59Zm103.71 176.86c-18.02 40.39-55.68 68.78-104.26 68.78-66.59 0-112.44-54.59-112.44-125.55 0-81.33 55.68-138.65 115.18-138.65 62.77 0 98.26 44.21 98.26 105.35l-159.94 25.66c6.01 59.5 41.48 93.89 85.15 93.89 26.2 0 48.59-10.92 67.69-37.12l10.37 7.64ZM1486.15 426.31h32.21v20.74h-122.82v-20.74h31.66V136.46c0-19.11-6.01-28.93-32.2-34.39V89.52l87.88-30.02h3.28v366.82Z" class="cls-3"/>
</svg>